<svg width="262" height="226" viewBox="0 0 262 226" fill="none" xmlns="http://www.w3.org/2000/svg">
<path d="M33.2522 225.995H213.795C236.001 225.995 247.048 214.836 247.048 193.189V176.563H205.761C178.758 176.563 162.02 159.601 162.02 135.165C162.02 110.728 178.758 93.7671 205.761 93.7671H247.048V77.3643C247.048 55.6053 236.001 44.5584 213.795 44.5584H33.2522C11.1584 44.5584 0 55.4937 0 77.3643V193.189C0 214.948 11.1584 225.995 33.2522 225.995ZM203.864 146.547C197.505 146.547 192.483 141.413 192.483 135.165C192.483 128.804 197.505 123.784 203.864 123.784C210.224 123.784 215.358 128.804 215.358 135.165C215.358 141.413 210.224 146.547 203.864 146.547ZM205.761 162.057H245.486C255.751 162.057 262 154.804 262 145.765V124.564C262 115.414 255.751 108.161 245.486 108.161H205.761C188.131 108.161 176.526 117.423 176.526 135.165C176.526 152.907 188.131 162.057 205.761 162.057ZM74.3152 29.2714H208.997C208.997 28.3788 208.997 27.5977 208.997 26.7049C207.882 2.82594 190.698 -4.31545 167.265 2.49118L74.3152 29.2714Z" fill="#6E6E6E" fill-opacity="0.3"/>
</svg>
